<svg xmlns="http://www.w3.org/2000/svg" viewBox="0 0 512 512">
  <defs>
    <linearGradient id="bg" x1="0%" y1="0%" x2="100%" y2="100%">
      <stop offset="0%" style="stop-color:#2563eb"/>
      <stop offset="100%" style="stop-color:#1d4ed8"/>
    </linearGradient>
  </defs>
  <rect width="512" height="512" rx="96" fill="url(#bg)"/>
  <g fill="white">
    <!-- QR Pattern -->
    <rect x="96" y="96" width="80" height="80" rx="8"/>
    <rect x="336" y="96" width="80" height="80" rx="8"/>
    <rect x="96" y="336" width="80" height="80" rx="8"/>
    <!-- Inner squares -->
    <rect x="120" y="120" width="32" height="32" rx="4" fill="#2563eb"/>
    <rect x="360" y="120" width="32" height="32" rx="4" fill="#2563eb"/>
    <rect x="120" y="360" width="32" height="32" rx="4" fill="#2563eb"/>
    <!-- Center wrench icon -->
    <path d="M304 208c0-26.5-21.5-48-48-48s-48 21.5-48 48c0 20.9 13.4 38.7 32 45.3V368c0 8.8 7.2 16 16 16s16-7.2 16-16V253.3c18.6-6.6 32-24.4 32-45.3zm-48-16c8.8 0 16 7.2 16 16s-7.2 16-16 16-16-7.2-16-16 7.2-16 16-16z" transform="translate(0, 20)"/>
    <!-- Data pattern -->
    <rect x="216" y="96" width="32" height="32" rx="4"/>
    <rect x="264" y="96" width="32" height="32" rx="4"/>
    <rect x="96" y="216" width="32" height="32" rx="4"/>
    <rect x="96" y="264" width="32" height="32" rx="4"/>
    <rect x="336" y="264" width="80" height="32" rx="4"/>
    <rect x="384" y="336" width="32" height="80" rx="4"/>
  </g>
</svg>
